<?xml version="1.0" encoding="UTF-8"?>
<svg xmlns="http://www.w3.org/2000/svg" xmlns:xlink="http://www.w3.org/1999/xlink" width="680" height="400" viewBox="0 0 680 400">
  <defs>
    <linearGradient id="linear-gradient" x1="0.5" x2="0.5" y2="1" gradientUnits="objectBoundingBox">
      <stop offset="0" stop-color="#213293"></stop>
      <stop offset="1" stop-color="#5668f0"></stop>
    </linearGradient>
  </defs>
  <g id="Group_21395" data-name="Group 21395" transform="translate(-980 -3041)">
    <g id="Group_21043" data-name="Group 21043" transform="translate(720 244)" opacity="0">
      <rect id="Rectangle_7786" data-name="Rectangle 7786" width="680" height="400" transform="translate(260 2797)" fill="#e6e6e6"></rect>
      <g id="image" transform="translate(576 2976.5)" opacity="0.4">
        <path id="Path_2018" data-name="Path 2018" d="M185.545,105.635a4.661,4.661,0,1,0-4.8-4.659A4.734,4.734,0,0,0,185.545,105.635Zm0-6.586a1.927,1.927,0,1,1-1.983,1.927A1.958,1.958,0,0,1,185.545,99.049Zm0,0" transform="translate(-163.805 -87.088)"></path>
        <path id="Path_2019" data-name="Path 2019" d="M46.247.5H1.753A1.73,1.73,0,0,0,0,2.2V38.8a1.73,1.73,0,0,0,1.753,1.7H46.247A1.73,1.73,0,0,0,48,38.8V2.2A1.73,1.73,0,0,0,46.247.5Zm-1.06,2.733V24.859l-8.845-8.6a1.512,1.512,0,0,0-2.091,0L21.741,28.42,13.75,20.656a1.51,1.51,0,0,0-2.093,0L2.813,29.249V3.233ZM2.813,37.767V33.114L12.7,23.5l7.991,7.764a1.509,1.509,0,0,0,2.093,0L35.3,19.113l9.891,9.611v9.044Zm0,0"></path>
      </g>
    </g>
    <g id="Group_21394" data-name="Group 21394" transform="translate(543 415)">
      <circle id="Ellipse_47" data-name="Ellipse 47" cx="150" cy="150" r="150" transform="translate(817 2638)" fill="#fcf22b" opacity="0.5"></circle>
      <circle id="Ellipse_48" data-name="Ellipse 48" cx="75" cy="75" r="75" transform="translate(437 2788)" fill="#fcf22b" opacity="0.23"></circle>
      <circle id="Ellipse_49" data-name="Ellipse 49" cx="46" cy="46" r="46" transform="translate(1025 2642)" fill="#fcf22b" opacity="0.5"></circle>
      <g id="Group_21388" data-name="Group 21388" transform="translate(747.916 2997.86)" opacity="0.06">
        <path id="Path_2021" data-name="Path 2021" d="M336.984,353.191c0,4.57,67.4,8.278,150.54,8.278s150.528-3.708,150.528-8.278-67.4-8.281-150.528-8.281S336.984,348.617,336.984,353.191Z" transform="translate(-336.984 -344.91)"></path>
      </g>
      <g id="Group_21393" data-name="Group 21393" transform="translate(477 2549.675)">
        <rect id="Rectangle_7927" data-name="Rectangle 7927" width="273.529" height="7.866" transform="translate(64.211 303.169)" fill="#e6e7e8"></rect>
        <path id="Path_2150" data-name="Path 2150" d="M394.591,146.575a7.361,7.361,0,0,0-7.009,5.115H14.369a7.362,7.362,0,1,0,0,4.491H387.582a7.36,7.36,0,1,0,7.009-9.606Z" fill="#e6e7e8"></path>
        <rect id="Rectangle_7928" data-name="Rectangle 7928" width="289.141" height="140.796" transform="translate(62.492 162.373)" fill="url(#linear-gradient)"></rect>
        <path id="Path_2151" data-name="Path 2151" d="M330.909,301.32V243.5l-11.732-7.772-5.056,3.349V236.5h-4.44v5.521l-2.236,1.481v43.22h-3.22V228.81l-14.076,5.956v43.751h-6.237V227.239h-2.926v-6.492l-26.047-9.8v18.842H249.9v16.377H239.724v20.731h-16.5V219.85A31.758,31.758,0,0,0,209.956,213v-5.416h-9.574V205.9h-2.2v-8.064l-.609-6.823a.305.305,0,0,0-.608,0l-.609,6.823V205.9h-2.2v1.684h-4.095v10.1c-.962.661-1.925,1.378-2.888,2.165v26.311h-4.832V220.687H160.614v53.585H155.75V249.219H134.018V234.683h-3.739V212.175l-9.877-10.9-9.878,10.9V260.5H106.3V230.109l-3.16.6V211.48H98.268v-.067a7.294,7.294,0,0,0-7.295-7.295h-.015v21.821H85.434v8.1l-5.179.976v39.595H75.693V254.884H63.964V301.32Z" fill="#2c3980"></path>
        <path id="Path_2152" data-name="Path 2152" d="M232.136,186.794l.643,1.642,1.642.643-1.642.643-.643,1.642-.643-1.642-1.642-.643,1.642-.643Z" fill="#f9f8f7"></path>
        <path id="Path_2153" data-name="Path 2153" d="M324.258,197.344l.643,1.642,1.642.643-1.642.643-.643,1.642-.643-1.642-1.642-.643,1.642-.643Z" fill="#f9f8f7"></path>
        <path id="Path_2154" data-name="Path 2154" d="M80.183,213.682l.643,1.642,1.642.643-1.642.643-.643,1.642-.643-1.642-1.642-.643,1.642-.643Z" fill="#f9f8f7"></path>
        <path id="Path_2155" data-name="Path 2155" d="M181.822,210.832l.643,1.642,1.642.643-1.642.643-.643,1.642-.643-1.642-1.642-.643,1.642-.643Z" fill="#f9f8f7"></path>
        <path id="Path_2156" data-name="Path 2156" d="M121.2,174.094l.643,1.642,1.642.643-1.642.643-.643,1.642-.643-1.642-1.642-.643,1.642-.643Z" fill="#f9f8f7"></path>
        <path id="Path_2157" data-name="Path 2157" d="M147.284,197.344l.643,1.642,1.642.643-1.642.643-.643,1.642-.643-1.642L145,199.629l1.642-.643Z" fill="#f9f8f7"></path>
        <path id="Path_2158" data-name="Path 2158" d="M214.285,303.8h-23.5l66.56-141.426h23.5Z" fill="#13192e" opacity="0.2"></path>
        <path id="Path_2159" data-name="Path 2159" d="M246.92,303.8h-9.305l66.56-141.426h9.305Z" fill="#13192e" opacity="0.2"></path>
        <path id="Path_2160" data-name="Path 2160" d="M99.682,303.8h-23.5l66.56-141.426h23.5Z" fill="#13192e" opacity="0.2"></path>
        <path id="Path_2161" data-name="Path 2161" d="M118.657,303.8h-9.305l66.56-141.426h9.305Z" fill="#13192e" opacity="0.2"></path>
        <rect id="Rectangle_7929" data-name="Rectangle 7929" width="273.529" height="7.866" transform="translate(64.211 299.236)" fill="#f9f8f7"></rect>
        <rect id="Rectangle_7930" data-name="Rectangle 7930" width="273.529" height="3.493" transform="translate(64.211 204.758)" fill="#f9f8f7"></rect>
        <rect id="Rectangle_7931" data-name="Rectangle 7931" width="132.93" height="7.867" transform="translate(198.917 299.236) rotate(-90)" fill="#f9f8f7"></rect>
        <rect id="Rectangle_7932" data-name="Rectangle 7932" width="132.93" height="7.867" transform="translate(309.527 299.236) rotate(-90)" fill="#f9f8f7"></rect>
        <rect id="Rectangle_7933" data-name="Rectangle 7933" width="132.93" height="7.866" transform="translate(88.308 299.236) rotate(-90)" fill="#f9f8f7"></rect>
        <rect id="Rectangle_7934" data-name="Rectangle 7934" width="273.529" height="7.866" transform="translate(64.211 158.44)" fill="#f9f8f7"></rect>
        <g id="Group_21390" data-name="Group 21390">
          <rect id="Rectangle_7935" data-name="Rectangle 7935" width="387.23" height="4.492" transform="translate(7.36 143.439)" fill="#f9f8f7"></rect>
        </g>
        <circle id="Ellipse_50" data-name="Ellipse 50" cx="7.36" cy="7.36" r="7.36" transform="translate(387.23 138.325)" fill="#f9f8f7"></circle>
        <circle id="Ellipse_51" data-name="Ellipse 51" cx="7.36" cy="7.36" r="7.36" transform="translate(0 138.325)" fill="#f9f8f7"></circle>
        <g id="Group_21391" data-name="Group 21391">
          <path id="Rectangle_7936" data-name="Rectangle 7936" d="M0,0H6.969a0,0,0,0,1,0,0V186.815a2.109,2.109,0,0,1-2.109,2.109H2.109A2.109,2.109,0,0,1,0,186.815V0A0,0,0,0,1,0,0Z" transform="translate(327.42 143.439)" fill="#d3dee3"></path>
          <path id="Rectangle_7937" data-name="Rectangle 7937" d="M0,0H6.969a0,0,0,0,1,0,0V186.815a2.109,2.109,0,0,1-2.109,2.109H2.109A2.109,2.109,0,0,1,0,186.815V0A0,0,0,0,1,0,0Z" transform="translate(344.663 143.439)" fill="#d3dee3"></path>
          <path id="Rectangle_7938" data-name="Rectangle 7938" d="M0,0H10.408a0,0,0,0,1,0,0V192.378A2.109,2.109,0,0,1,8.3,194.487H2.109A2.109,2.109,0,0,1,0,192.378V0A0,0,0,0,1,0,0Z" transform="translate(334.255 143.439)" fill="#e5ecef"></path>
          <path id="Rectangle_7939" data-name="Rectangle 7939" d="M0,0H10.408a0,0,0,0,1,0,0V192.378A2.109,2.109,0,0,1,8.3,194.487H2.109A2.109,2.109,0,0,1,0,192.378V0A0,0,0,0,1,0,0Z" transform="translate(351.633 143.439)" fill="#e5ecef"></path>
          <path id="Rectangle_7940" data-name="Rectangle 7940" d="M0,0H6.969a0,0,0,0,1,0,0V186.815a2.109,2.109,0,0,1-2.109,2.109H2.109A2.109,2.109,0,0,1,0,186.815V0A0,0,0,0,1,0,0Z" transform="translate(362.041 143.439)" fill="#d3dee3"></path>
          <path id="Rectangle_7941" data-name="Rectangle 7941" d="M0,0H10.408a0,0,0,0,1,0,0V192.378A2.109,2.109,0,0,1,8.3,194.487H2.109A2.109,2.109,0,0,1,0,192.378V0A0,0,0,0,1,0,0Z" transform="translate(368.876 143.439)" fill="#e5ecef"></path>
        </g>
        <g id="Group_21392" data-name="Group 21392">
          <path id="Rectangle_7942" data-name="Rectangle 7942" d="M2.109,0H4.86A2.109,2.109,0,0,1,6.97,2.109V188.924a0,0,0,0,1,0,0H0a0,0,0,0,1,0,0V2.109A2.109,2.109,0,0,1,2.109,0Z" transform="translate(74.531 332.364) rotate(180)" fill="#d3dee3"></path>
          <path id="Rectangle_7943" data-name="Rectangle 7943" d="M2.109,0H4.86A2.109,2.109,0,0,1,6.97,2.109V188.924a0,0,0,0,1,0,0H0a0,0,0,0,1,0,0V2.109A2.109,2.109,0,0,1,2.109,0Z" transform="translate(57.287 332.364) rotate(180)" fill="#d3dee3"></path>
          <path id="Rectangle_7944" data-name="Rectangle 7944" d="M2.109,0H8.3a2.109,2.109,0,0,1,2.109,2.109V194.487a0,0,0,0,1,0,0H0a0,0,0,0,1,0,0V2.109A2.109,2.109,0,0,1,2.109,0Z" transform="translate(67.696 337.926) rotate(180)" fill="#e5ecef"></path>
          <path id="Rectangle_7945" data-name="Rectangle 7945" d="M2.109,0H8.3a2.109,2.109,0,0,1,2.109,2.109V194.487a0,0,0,0,1,0,0H0a0,0,0,0,1,0,0V2.109A2.109,2.109,0,0,1,2.109,0Z" transform="translate(50.318 337.926) rotate(180)" fill="#e5ecef"></path>
          <path id="Rectangle_7946" data-name="Rectangle 7946" d="M2.109,0H4.86A2.109,2.109,0,0,1,6.969,2.109V188.924a0,0,0,0,1,0,0H0a0,0,0,0,1,0,0V2.109A2.109,2.109,0,0,1,2.109,0Z" transform="translate(39.91 332.364) rotate(180)" fill="#d3dee3"></path>
          <path id="Rectangle_7947" data-name="Rectangle 7947" d="M2.109,0H8.3a2.109,2.109,0,0,1,2.109,2.109V194.487a0,0,0,0,1,0,0H0a0,0,0,0,1,0,0V2.109A2.109,2.109,0,0,1,2.109,0Z" transform="translate(33.074 337.926) rotate(180)" fill="#e5ecef"></path>
        </g>
      </g>
      <g id="Group_21387" data-name="Group 21387" transform="translate(432.706 2451.546)">
        <g id="Group_21369" data-name="Group 21369" transform="translate(409.833 294.432)">
          <path id="Path_2122" data-name="Path 2122" d="M498.415,319.681a1.28,1.28,0,0,1,.3.537,1.309,1.309,0,0,1-.32.928c-.82,1.223-1.776,2.544-3.213,2.862a5.858,5.858,0,0,1-3.082-.454,18.094,18.094,0,0,1-6.333-3.127c-.65-.571-1.248-1.516-.781-2.245a4.126,4.126,0,0,0,.332-.464c.217-.464-.119-.983-.414-1.4a4.423,4.423,0,0,1-.9-2.138,3.574,3.574,0,0,1,2.608-3.387,4.912,4.912,0,0,1,3.9.4,9.682,9.682,0,0,1,1.648,1.288A54.82,54.82,0,0,1,498.415,319.681Z" transform="translate(-337.02 -286.568)" fill="#9e7d6a"></path>
          <path id="Path_2123" data-name="Path 2123" d="M426,457.037a32.669,32.669,0,0,1-9.043-6.419c-4.112-4.345-6.343-10.107-8.182-15.8a175.8,175.8,0,0,1-6.4-26.878c-.823-5.269-5.015-15.791-.089-20.165,2.328-2.066,8.829-2.612,11.84-3.286a125.8,125.8,0,0,1,24.366-2.992c3.664-.089,7.388-.025,10.919-1.009,7.071-1.971,12.362-7.852,16.321-14.033s7.047-12.975,11.868-18.509a19.509,19.509,0,0,1,7.414-5.647,25.675,25.675,0,0,1,8.883-1.221q25.329-.422,50.634,1.342c2.2.155,4.557.381,6.252,1.791,2.626,2.181,2.58,6.156,2.248,9.552a275.182,275.182,0,0,1-5.616,34.519,4.949,4.949,0,0,1-.924,2.233,5.01,5.01,0,0,1-2.867,1.264l-17.9,3.646c-6.245,1.273-12.768,2.675-17.679,6.739a29.85,29.85,0,0,0-7.169,9.622c-6.284,12.28-9.147,26.2-14.311,38.971-1.913,4.729-2.086,9.063-6.555,12.384-5.2,3.868-11.944,2.816-17.884,1.69C449.646,462.469,437.829,463.061,426,457.037Z" transform="translate(-378.016 -271.725)" fill="#d4ae69"></path>
          <path id="Path_2124" data-name="Path 2124" d="M456.672,354.092c-2.153-1.868-4.926-4.957-7.155-6.733-2.255-1.8-3.125-3.82-5.344-5.663-3.419-2.84-5.192-5.846-7.992-9.3a12.658,12.658,0,0,1-1.386-3.054c-.046-.714,1.2-2.519,1.745-2.978a20.184,20.184,0,0,1,5.689-3.227c7.33-3.247,15.33-4.606,23.235-5.936l17.508-2.945a2.483,2.483,0,0,1,3.377,2.129c.521,1.477.964,3.331-.147,4.433a4.2,4.2,0,0,1-2.166.91c-7.356,1.552-17.13,5.473-24.485,7.023-1.215.256-2.682.766-2.855,1.995a3.082,3.082,0,0,0,.522,1.812c2.639,4.943,7.91,7.748,12.7,10.662,2.051,1.25,4.723,2.507,4.827,4.908.132,3.042-4.328,11.69-7.334,12.4C463.789,361.389,459.093,356.193,456.672,354.092Z" transform="translate(-361.013 -284.819)" fill="#2e2e2e"></path>
          <path id="Path_2125" data-name="Path 2125" d="M443.727,419.429c-2.1.39-4.408.97-5.473,2.867a8.927,8.927,0,0,0-.72,4.325l-.009,6.043a2.648,2.648,0,0,0,.208,1.253,1.589,1.589,0,0,0,2.159.527,4.166,4.166,0,0,0,1.421-1.9q1.4-2.883,2.791-5.765c.937-1.935,1.9-4.13,1.232-6.34a1.552,1.552,0,0,0-.628-.951A1.451,1.451,0,0,0,443.727,419.429Z" transform="translate(-359.681 -233.509)" fill="#8f5338"></path>
          <path id="Path_2126" data-name="Path 2126" d="M457.542,418.783c-2.481,2.684-1.516,6.943-.4,10.424l6.235,19.413,3.808,11.861a12.21,12.21,0,0,0,2.374,4.8c1.238,1.311,3.325,2,4.885,1.1a340.54,340.54,0,0,1-7.4-41.932,10.615,10.615,0,0,0-1.523-5.232A5.424,5.424,0,0,0,457.542,418.783Z" transform="translate(-350.679 -234.549)" fill="#8f5338"></path>
          <path id="Path_2127" data-name="Path 2127" d="M409.876,449.962c-.262,1.266-.3,2.621.434,3.424a1.586,1.586,0,0,0,2.266-.012,7.41,7.41,0,0,0,1.56-2.389,191.041,191.041,0,0,1,10.694-19.015c1.638-2.554,5.058-6.729,4.729-10.534-.306-3.542-3.613-5.881-5.949-6.316-4.564-.852-5.668,8.628-6.956,12.786l-6.467,20.864C410.073,449.144,409.962,449.549,409.876,449.962Z" transform="translate(-373.247 -235.608)" fill="#8f5338"></path>
          <path id="Path_2128" data-name="Path 2128" d="M495.018,444.994c.259.939.213,2.349-.757,2.42-.6.043-1.038-.536-1.354-1.049q-7.594-12.384-14.605-25.111c-1.242-2.254-2.492-4.966-1.376-7.285a5.576,5.576,0,0,1,2.932-2.565,5.1,5.1,0,0,1,4.975.247c1.236.931,1.718,2.532,2.129,4.024Q490.989,430.334,495.018,444.994Z" transform="translate(-340.68 -237.649)" fill="#8f5338"></path>
          <path id="Path_2129" data-name="Path 2129" d="M416.409,408.917a108.118,108.118,0,0,1,22.231-13.873c6.424-3,13.289-5.384,20.377-5.494a66,66,0,0,1,12.151,1.32l29.241,5.022a4.838,4.838,0,0,1,2.328.83,4.172,4.172,0,0,1,1.22,2.493c.9,4.612-.561,9.35-2.407,13.67a18.561,18.561,0,0,1-4,6.413c-3.056,2.874-7.486,3.662-11.661,4.052-16.2,1.514-32.484-1.016-48.563-3.539l-16.135-2.533a11.893,11.893,0,0,1-4.945-1.543c-1.439-.98-2.426-2.856-1.825-4.491A5.778,5.778,0,0,1,416.409,408.917Z" transform="translate(-371.035 -248.053)" fill="#bf9552"></path>
          <path id="Path_2130" data-name="Path 2130" d="M512.112,379.123a91.64,91.64,0,0,1-14.8,32.446,17.156,17.156,0,0,1-5.195,5.222,17.342,17.342,0,0,1-5.626,1.7c-10,1.714-20.729,1.855-29.781-2.719a8.2,8.2,0,0,1-3.094-2.349c-1.595-2.228-.971-5.274-.484-7.971,1.735-9.576.927-19.744,4.729-28.7a9.709,9.709,0,0,1,2.551-3.831,11.18,11.18,0,0,1,3.541-1.732,156.481,156.481,0,0,1,34.879-7.716c3.967-.412,8.457-.5,11.37,2.221C513.665,368.934,513.2,374.5,512.112,379.123Z" transform="translate(-352.336 -260.873)" fill="#dcdbe6"></path>
          <path id="Path_2131" data-name="Path 2131" d="M482.808,345.634c3.606-3.314,4.933-8.094,6.122-12.636l2.118-8.1c.744-2.843,1.491-5.784.916-8.674-.775-3.9-4.034-7.261-8.094-8.761a17.354,17.354,0,0,0-12.7.509,12.907,12.907,0,0,0-5.358,4.083,15.827,15.827,0,0,0-2.313,5.767,60.337,60.337,0,0,0-.916,22.92C463.878,349.243,476.365,351.556,482.808,345.634Z" transform="translate(-347.798 -288.549)" fill="#9e7d6a"></path>
          <path id="Path_2132" data-name="Path 2132" d="M436.842,391.392c-10.216,5.2-19.564,11.937-28.719,18.836-2.648,2-5.48,4.317-6.061,7.584a8.993,8.993,0,0,0,1.959,6.812,25.308,25.308,0,0,0,5.387,4.875c11.94,8.81,24.473,16.78,36.993,24.744a7.026,7.026,0,0,0,3.073,1.318c2.269.19,4.081-1.761,5.506-3.535a4.5,4.5,0,0,0,1.07-1.9c.247-1.325-.707-2.547-1.617-3.541a99.581,99.581,0,0,0-12.7-11.654c-3.185-2.452-6.787-5.122-7.46-9.085-.518-3.048.93-6.165,3.066-8.4a29.964,29.964,0,0,1,7.62-5.22l24.763-13.442a23.063,23.063,0,0,0,6.556-4.622c1.778-2.016,2.819-4.9,1.949-7.444a9.05,9.05,0,0,0-3.915-4.4c-4.926-3.163-13.432-4.926-18.57-1.3C449.783,385.228,443.348,388.078,436.842,391.392Z" transform="translate(-377.024 -253.194)" fill="#304ffe"></path>
          <path id="Path_2133" data-name="Path 2133" d="M453.613,409.114c5.326-9.857,9.958-21.456,20.2-26,5.717-2.535,12.221-2.339,18.469-2.1,2.316.089,4.862.272,6.522,1.888,1.635,1.59,1.91,4.089,1.952,6.37.122,6.618-1.022,13.533-4.943,18.866-3.115,4.234-7.693,7.106-12.117,9.949a496.641,496.641,0,0,0-68.587,53.1c-3.063,2.832-9.5,11.678-13.871,11.3-6.676-.585-3.466-7.022-1.4-9.437,8.643-10.105,18.179-19.4,27.255-29.11C437.072,433.268,446.634,422.025,453.613,409.114Z" transform="translate(-379.332 -252.276)" fill="#304ffe"></path>
          <path id="Path_2134" data-name="Path 2134" d="M502.432,337.575a10.668,10.668,0,0,1,4.928,1.711,6.449,6.449,0,0,1,2.044,4.58,49.15,49.15,0,0,1-.18,9.164q-1.435,17.865-2.114,35.764c-.134,3.508-.253,7.06-1.431,10.434a14.377,14.377,0,0,1-7.257,8.371c-3.363,1.605-7.417,1.84-11.307,1.912-7.986.147-15.97-.231-23.943-.608-8.9-.422-18.06-.9-26.121-4.023-1.8-.7-3.729-1.772-3.9-3.4-.12-1.177.744-2.254,1.583-3.215a175.288,175.288,0,0,1,12.968-13.332c1.617-1.5,3.268-2.971,4.735-4.567,3.475-3.786,5.828-8.169,8.151-12.508a48.431,48.431,0,0,0,3.715-8.1c.83-2.633,1.169-5.354,1.932-8a55.255,55.255,0,0,1,3.45-8.363c2.1-4.4,5.449-9,11.962-8.256C488.569,335.935,495.568,336.425,502.432,337.575Z" transform="translate(-361.818 -274.62)" fill="#353535"></path>
          <path id="Path_2135" data-name="Path 2135" d="M525.135,374.237c-1.528-1.647-4.148-1.447-6.363-1.076a169.449,169.449,0,0,0-30.459,8.075c-5.016,1.845-10.163,4.085-13.511,8.252a30.323,30.323,0,0,0-4.061,7.548q-3.99,9.642-7.059,19.634c-2.777,9.043-5.361,18.888-12.657,24.91-2.489,2.054-5.717,4.029-5.958,7.246,9.606,1.785,19.608.412,28.863-2.718s17.841-7.957,26.1-13.182a46.478,46.478,0,0,0,8.384-6.321,38.185,38.185,0,0,0,4.159-5.164,78.081,78.081,0,0,0,13.771-42.354C526.38,377.377,526.3,375.491,525.135,374.237Z" transform="translate(-356.003 -256.167)" fill="#d4ae69"></path>
          <path id="Path_2136" data-name="Path 2136" d="M436.5,435.085a9.21,9.21,0,0,1-1.187,3.13,98.288,98.288,0,0,0-4.731,10.581,10.666,10.666,0,0,0-.858,3.472,3.813,3.813,0,0,0,1.328,3.17,3.394,3.394,0,0,0,3.326.2,9.171,9.171,0,0,0,2.782-2.148c5.141-5.28,9.045-11.712,12.9-18.083a4.773,4.773,0,0,0,.991-3.2c-.232-1.244-1.367-2.038-2.4-2.691l-5.561-3.506a1.49,1.49,0,0,0-2.333.248,38.654,38.654,0,0,0-3.785,4.42C435.615,432.564,436.739,433,436.5,435.085Z" transform="translate(-363.486 -230.489)" fill="#5e5147"></path>
          <path id="Path_2137" data-name="Path 2137" d="M532.775,347.305c1.767-.677,3.8-1.776,3.547-3.175-.113-.617-.357-3.057-.93-3.5-2.446-1.882-3.273-3.875-6.052-5.494-9.442-5.5-16.153-10.885-25.1-16.8a2.013,2.013,0,0,0-.76-.354,2.578,2.578,0,0,0-1.929.745q-1.691,1.341-3.38,2.684c-.234.186-.481.393-.509.637-.031.28.232.51.477.711,5.385,4.394,9.635,9.476,13.857,14.53.425.509.867,1.08.708,1.691-.205.787-1.3,1.29-2.278,1.672a154.35,154.35,0,0,1-21.9,6.682c-2.98.674-6.327,1.455-7.877,3.465a6.428,6.428,0,0,0-1.1,3.471,12.886,12.886,0,0,0,.26,5.406c.851,2.556,2.916,4.513,6.571,2.965,3.816-1.617,7.611-3.157,11.623-4.473,7.938-2.6,16.156-4.6,24.221-6.931C526.719,349.941,528.477,348.949,532.775,347.305Z" transform="translate(-339.263 -282.96)" fill="#2e2e2e"></path>
          <path id="Path_2138" data-name="Path 2138" d="M481.25,319.6a3.1,3.1,0,0,1,.357,1.217,2.784,2.784,0,0,0,3.948,1.678,9.989,9.989,0,0,0,.046,3.307c.183,1.009.522,1.984.735,2.987a12.315,12.315,0,0,1-.123,5.608,2.193,2.193,0,1,1,3.02,3.179c-.742.669-2.078,1.153-1.836,2.123.1.379.437.65.579,1.016a2.478,2.478,0,0,1-.35,1.793,21.232,21.232,0,0,0-.991,5.32c-.263,1.79-.876,3.685-2.362,4.717a2.852,2.852,0,0,0,2.547-.907c.686-.646,1.218-1.448,1.953-2.037,1.569-1.258,3.738-1.331,5.714-1.714s4.167-1.449,4.506-3.432a17.707,17.707,0,0,1,.187-2c.373-1.276,1.748-1.921,2.929-2.53a20.676,20.676,0,0,0,6.078-4.772,2.744,2.744,0,0,0,.913-2.41,8.914,8.914,0,0,0-.672-1.223c-.756-1.592.641-3.323,1.922-4.534s2.673-2.953,1.9-4.539a8.845,8.845,0,0,0-.962-1.291c-1.148-1.563-1.007-3.712-.607-5.61s1.012-3.835.632-5.736a2.732,2.732,0,0,0-.552-1.275c-.536-.622-1.471-.852-1.87-1.569s-.1-1.62-.3-2.414c-.3-1.236-1.675-1.877-2.929-2.092a6.2,6.2,0,0,1-5.349-2.281,19.276,19.276,0,0,0-6.025-3.332,23.859,23.859,0,0,0-15.916-1.9,19.566,19.566,0,0,0-10.321,3.6l-6.971,4.3A18.468,18.468,0,0,0,458,305.067a2.879,2.879,0,0,0-.881,1.293c-.439,1.677,1.7,3.03,1.743,4.763.034,1.54-1.559,2.6-2.065,4.055a.978.978,0,0,0-.039.677c.158.391.656.482,1.031.674a2.237,2.237,0,0,1,1.044,2.17,6.579,6.579,0,0,1-.823,2.4,6.665,6.665,0,0,0,4.768.979,15.741,15.741,0,0,1,2.022-.378,7.96,7.96,0,0,0,4.78-1.479,4.645,4.645,0,0,1,3.237-.918,23.629,23.629,0,0,0,3.6.443C477.614,319.687,480.345,318.393,481.25,319.6Z" transform="translate(-350.323 -294.432)" fill="#353535"></path>
          <path id="Path_2139" data-name="Path 2139" d="M388.358,456.952a5.713,5.713,0,0,0-2.5,1.757,4.119,4.119,0,0,0-.564,1.657,7.768,7.768,0,0,0,2.026,6.626,6.223,6.223,0,0,0,6.7,1.376,9.492,9.492,0,0,0,3-2.405c1.192-1.3,2.3-2.675,3.4-4.049l6.642-8.256a7.167,7.167,0,0,0,1.986-3.924,3.638,3.638,0,0,0-1.874-3.289,3.25,3.25,0,0,0-4.1.723,43.061,43.061,0,0,1-4.549,3.738A60.582,60.582,0,0,1,388.358,456.952Z" transform="translate(-385.197 -220.522)" fill="#5e5147"></path>
        </g>
        <g id="Group_21386" data-name="Group 21386" transform="translate(334.676 373.505)">
          <g id="Group_21372" data-name="Group 21372" transform="translate(0.493 41.926)">
            <g id="Group_21371" data-name="Group 21371">
              <g id="Group_21370" data-name="Group 21370">
                <path id="Path_2140" data-name="Path 2140" d="M336.659,376.322a3.512,3.512,0,0,1,1.483-.247c2.437-.235,11.718-.242,14.418-.242l215.408-.006h16.376c2.661,0,7.142-.06,11.281-.057h.592c3.036.006,5.842.048,7.545.175,1.91.143,2.042.4,1.9.671a21.664,21.664,0,0,1,1.081,6.281,37.533,37.533,0,0,1-1.486,8.967l-2.51.171c-4.777.021-11.034.031-15.761.125l-234.482.012c-2.742-.007-12.117-.071-14.525-.2-2.513-.132-2.513-.132-2.38-.659a59.892,59.892,0,0,1-.579-7.557C335.16,381.534,334.556,377.926,336.659,376.322Z" transform="translate(-335.008 -375.769)" fill="#adadad"></path>
              </g>
            </g>
          </g>
          <g id="Group_21375" data-name="Group 21375" transform="translate(0.492 165.74)">
            <g id="Group_21374" data-name="Group 21374">
              <g id="Group_21373" data-name="Group 21373">
                <path id="Path_2141" data-name="Path 2141" d="M336.658,459.39a4.869,4.869,0,0,1,1.485-.175c2.435-.165,11.716-.171,14.418-.171,25.178,0,190.228,0,215.406,0h16.377c2.661,0,7.141-.043,11.281-.04h.592c3.036,0,5.842.034,7.545.123,1.909.1,2.042.286,1.9.475a11.452,11.452,0,0,1,1.08,4.439c.091,2.535-1.486,6.337-1.486,6.337l-2.508.122c-4.778.013-11.035.021-15.761.086l-234.482.009c-2.742,0-12.117-.051-14.525-.14-2.514-.094-2.514-.094-2.382-.466a30.392,30.392,0,0,1-.579-5.341C335.159,463.074,334.555,460.524,336.658,459.39Z" transform="translate(-335.007 -458.999)" fill="#adadad"></path>
              </g>
            </g>
          </g>
          <g id="Group_21378" data-name="Group 21378" transform="translate(0 47.62)">
            <g id="Group_21377" data-name="Group 21377">
              <g id="Group_21376" data-name="Group 21376">
                <path id="Path_2142" data-name="Path 2142" d="M345.876,380.366c.149.128.129.381.174.69.167,1.132.171,5.449.171,6.706,0,11.711,0,88.478,0,100.19v7.617c0,1.238.042,3.322.04,5.247v.275c0,1.412-.034,2.716-.125,3.509-.1.888-.284.951-.475.885a22.416,22.416,0,0,1-4.438.5,39.2,39.2,0,0,1-6.339-.69l-.121-1.168c-.015-2.222-.021-5.132-.088-7.331l-.007-109.062c0-1.275.049-5.635.14-6.755.094-1.169.094-1.169.466-1.108,0,0,3.77-.332,5.341-.269S344.743,379.387,345.876,380.366Z" transform="translate(-334.676 -379.597)" fill="#adadad"></path>
              </g>
            </g>
          </g>
          <g id="Group_21384" data-name="Group 21384" transform="translate(78.974)">
            <g id="Group_21383" data-name="Group 21383">
              <g id="Group_21382" data-name="Group 21382">
                <g id="Group_21379" data-name="Group 21379" transform="translate(3.419 35.879)">
                  <path id="Path_2143" data-name="Path 2143" d="M423.11,389.1c6.516,0,13.033.314,19.513.952a17.022,17.022,0,0,0,4.179.085,15.187,15.187,0,0,0,5.959-2.725Q460,382.652,466.742,377.3q-27.509-3.053-55.088-5.544a4.581,4.581,0,0,0-1.529.034,4.312,4.312,0,0,0-1.741,1.108c-2.633,2.35-5.326,4.647-8.167,6.781-2.813,2.111-6.441,3.622-9.094,5.809-3.719,3.066,3.352,3.261,5.616,3.456,4.11.356,8.243.408,12.368.37C413.775,389.268,418.442,389.1,423.11,389.1Z" transform="translate(-390.061 -371.704)" fill="#6e6d6d"></path>
                </g>
                <g id="Group_21381" data-name="Group 21381">
                  <g id="Group_21380" data-name="Group 21380">
                    <path id="Path_2144" data-name="Path 2144" d="M455.314,351.656a263.16,263.16,0,0,1-2.63,45,5.743,5.743,0,0,1-1.671,3.895c-1.477,1.2-3.853,1.171-5.983,1.071l-38-1.778a73.185,73.185,0,0,1-13.624-1.5,4.862,4.862,0,0,1-2.212-.965,3.566,3.566,0,0,1-.907-2.209,222.884,222.884,0,0,1-2.4-25.938c-.161-4.835-.162-9.665-.054-14.486.124-5.5,2.184-7.661,8.454-7.072,6.5.613,13.133.418,19.66.714C419.29,348.544,455.286,350.618,455.314,351.656Z" transform="translate(-387.763 -347.586)" fill="#989898"></path>
                  </g>
                  <path id="Path_2145" data-name="Path 2145" d="M409.487,367.552a40.031,40.031,0,0,0,2-5.052,117.385,117.385,0,0,0,5.7,11.6,60.012,60.012,0,0,0-11.172-.025C407.025,371.835,408.413,369.77,409.487,367.552Z" transform="translate(-378.862 -340.314)" fill="#f1f1f2"></path>
                </g>
              </g>
            </g>
          </g>
          <g id="Group_21385" data-name="Group 21385" transform="translate(176.676 25.849)">
            <path id="Path_2146" data-name="Path 2146" d="M475.483,374.789c-.016-1.821.448-4.82-1.2-6.114a4.217,4.217,0,0,0-3.526-.6c0-.308.007-.617.007-.927a1.843,1.843,0,0,0-.118-.791,1.787,1.787,0,0,0-1.461-.756c-4.4-.646-10.221-1.156-14.521.324-1.836.632-1.114,1.937-.946,3.488.272,2.529.289,5.11.467,7.649q.308,4.418.714,8.832a1.823,1.823,0,0,0,.225.86,1.75,1.75,0,0,0,1,.6,27.593,27.593,0,0,0,9.2,1.218,4.911,4.911,0,0,0,3.048-.872,4.384,4.384,0,0,0,1.284-2.722c1.891-.232,3.959-.7,5.018-2.056C476.22,380.957,475.506,377.092,475.483,374.789Zm-3.575,4.22c-.138,1.346-.122,1.009-1.1,1.531a2.845,2.845,0,0,1-.683.241q.446-4.838.58-9.7a3.365,3.365,0,0,1,.674.135l.71-.181c.018.469.028.939.036,1.407q.018,1.172.006,2.346C472.117,376.2,472.053,377.605,471.909,379.01Z" transform="translate(-453.44 -364.962)" fill="#f4f4f4"></path>
            <path id="Path_2147" data-name="Path 2147" d="M467.637,367.921c.213-.088.451-.219.479-.446.045-.348-.412-.516-.762-.555q-3.735-.419-7.5-.527c-.7-.019-6.129-.579-5.039,1.2.646,1.053,5.159,1.089,6.312,1.166A14.6,14.6,0,0,0,467.637,367.921Z" transform="translate(-452.839 -364.312)" fill="#736357"></path>
          </g>
        </g>
      </g>
      <circle id="Ellipse_52" data-name="Ellipse 52" cx="39.5" cy="39.5" r="39.5" transform="translate(508 2894)" fill="#fcf22b" opacity="0.23"></circle>
    </g>
  </g>
</svg>
