<?xml version="1.0" encoding="UTF-8"?>
<svg xmlns="http://www.w3.org/2000/svg" width="53" height="47.996" viewBox="0 0 53 47.996">
  <g transform="translate(-406 -12)">
    <circle cx="20" cy="20" r="20" transform="translate(419 12)" fill="#fcf22b" opacity="0.5"></circle>
    <g transform="translate(406 11.902)">
      <path d="M262.447.418A1.1,1.1,0,0,0,261.662.1a1.141,1.141,0,0,0-.785.321L245.032,16.262l-.044.045-.022.022c-.022.033-.055.067-.077.1,0,.011-.011.011-.011.022-.022.033-.034.055-.055.088-.011.011-.011.023-.022.033-.011.033-.022.055-.033.089,0,.011-.011.011-.011.022l-2.822,8.509a1.09,1.09,0,0,0,.266,1.129,1.114,1.114,0,0,0,.785.321,1.318,1.318,0,0,0,.354-.055l8.487-2.832c.011,0,.011,0,.022-.011a.394.394,0,0,0,.1-.044.039.039,0,0,0,.023-.011c.033-.022.077-.044.111-.067s.066-.055.1-.077c.011-.011.022-.011.022-.022s.033-.022.045-.044L268.1,7.621a1.1,1.1,0,0,0,0-1.56ZM246.293,19.094l3.131,3.131-4.692,1.56Zm5.178,2.047-4.094-4.094L261.662,2.763l4.094,4.094Zm0,0" transform="translate(-220.425 0)"></path>
      <path d="M39.411,97.634A1.11,1.11,0,0,0,38.3,98.74v20.68a3.329,3.329,0,0,1-3.319,3.319H5.532a3.33,3.33,0,0,1-3.319-3.319V89.966a3.329,3.329,0,0,1,3.319-3.319H26.211a1.106,1.106,0,1,0,0-2.213H5.532A5.535,5.535,0,0,0,0,89.966V119.42a5.534,5.534,0,0,0,5.532,5.532H34.985a5.534,5.534,0,0,0,5.532-5.532V98.74A1.11,1.11,0,0,0,39.411,97.634Zm0,0" transform="translate(0 -76.857)"></path>
    </g>
  </g>
</svg>
