<?xml version="1.0" encoding="UTF-8"?>
<svg xmlns="http://www.w3.org/2000/svg" width="80" height="80" viewBox="0 0 80 80">
  <g transform="translate(0 0)">
    <path d="M30.046,68.633,47.858,50.823l20.78-20.78L50.827,12.234,12.234,50.823Z" transform="translate(-4.135 3.262)" fill="#2c3e50"></path>
    <path d="M18.65,50.83l17.805,17.8.869-.869-8.84-8.84L66.2,21.194,57.239,12.23Z" transform="translate(-10.55 3.26)" fill="#35495e"></path>
    <path d="M59.22,52.452a4.2,4.2,0,0,0-5.937-5.93,4.2,4.2,0,1,0-5.937-5.93l-8.02,24.06a1.4,1.4,0,0,0,1.769,1.769l24.062-8.033a4.2,4.2,0,1,0-5.937-5.93Z" transform="translate(-39.246 13.506)" fill="#b19046"></path>
    <path d="M53.23,61.819l8.661-2.9a8.366,8.366,0,0,0-7.544-7.543l-2.9,8.66a1.408,1.408,0,0,0,1.779,1.779Z" transform="translate(-51.378 18.1)" fill="#2c3e50"></path>
    <path d="M37.021,46.641a1.37,1.37,0,0,0,.975-.4l3.958-3.958A1.379,1.379,0,0,0,40,40.329l-3.958,3.958a1.379,1.379,0,0,0,.975,2.354Z" transform="translate(-10.123 13.765)" fill="#35495e"></path>
    <path d="M19.774,44.276a1.379,1.379,0,0,0,.975-.4l18.8-18.8a1.379,1.379,0,1,0-1.95-1.95l-18.8,18.8a1.379,1.379,0,0,0,.975,2.354Z" transform="translate(16.033 7.229)" fill="#35495e"></path>
    <path d="M24.093,25.124a1.379,1.379,0,0,0,.975-.4l3.958-3.957a1.38,1.38,0,0,0-1.95-1.953l-3.96,3.957a1.379,1.379,0,0,0,.976,2.354Z" transform="translate(20.621 5.602)" fill="#2c3e50"></path>
    <path d="M30.569,46.422a1.379,1.379,0,0,0,.975-.4l18.8-18.8a1.379,1.379,0,0,0-1.95-1.95l-18.8,18.8a1.379,1.379,0,0,0,.979,2.357Z" transform="translate(-9.601 8.055)" fill="#2c3e50"></path>
    <rect width="25.188" height="8.395" transform="translate(64.503 33.307) rotate(-135)" fill="#e6e7e8"></rect>
    <path d="M1,10.558l4.027,4.027L18.8,28.361l7.916-7.916a5.586,5.586,0,0,0,.083-7.833L16.83,2.642a5.586,5.586,0,0,0-7.916,0Z" transform="translate(51.636 -0.998)" fill="#df4d60"></path>
    <path d="M1,13.475,14.775,27.252l7.916-7.916a5.586,5.586,0,0,0,.083-7.833L16.83,5.559a5.611,5.611,0,0,0-7.916,0Z" transform="translate(55.664 0.112)" fill="#ff5364"></path>
    <path d="M17.97,13.86l3.958,3.958,5.944-5.93L23.914,7.93Z" transform="translate(28.72 1.63)" fill="#95a5a5"></path>
    <rect width="6.997" height="8.392" transform="translate(55.598 24.4) rotate(-135)" fill="#d1d4d1"></rect>
    <path d="M7.93,23.914l3.958,3.958,5.93-5.944L13.86,17.97Z" transform="translate(52.62 5.436)" fill="#d1d4d1"></path>
    <path d="M44.52,55.934a8.308,8.308,0,0,1,5.131,2.413L61.525,46.474a4.2,4.2,0,0,0-5.944,0,4.194,4.194,0,0,0-5.93-5.93Z" transform="translate(-41.55 13.546)" fill="#e4c05c"></path>
    <path d="M53.549,61.475l7.682-7.681A8.308,8.308,0,0,0,56.1,51.38l-2.9,8.66A1.379,1.379,0,0,0,53.549,61.475Z" transform="translate(-53.13 18.1)" fill="#35495e"></path>
  </g>
</svg>
